{"title":"Chronicle 2012 V2 TS XViD DTRG","uid":7055257,"size":890804620,"categoryP":"video","categoryS":"movies","magnet":"?xt=urn:btih:5848787bcd946f468b539ead8b030d7119893330&amp;dn=Chronicle+2012+V2+TS+XViD+DTRG&amp;tr=udp%3A%2F%2Ftracker.openbittorrent.com%3A80&amp;tr=udp%3A%2F%2Fopen.demonii.com%3A1337&amp;tr=udp%3A%2F%2Ftracker.coppersurfer.tk%3A6969&amp;tr=udp%3A%2F%2Fexodus.desync.com%3A6969","seeders":1,"leechers":0,"uploader":"HeroMaster","files":-1,"time":1330043489,"description":"Chronicle 2012 V2 TS XViD DTRG\n\nFormat                                   : AVI\nFormat/Info                              : Audio Video Interleave\nFile size                                : 842 MiB\nDuration                                 : 1h 15mn\nOverall bit rate                         : 1 554 Kbps\nWriting library                          : VirtualDub build 32842/release\n\nVideo\nID                                       : 0\nFormat                                   : MPEG-4 Visual\nFormat profile                           : Advanced Simple@L5\nFormat settings, BVOP                    : 2\nFormat settings, QPel                    : No\nFormat settings, GMC                     : No warppoints\nFormat settings, Matrix                  : Default (H.263)\nMuxing mode                              : Packed bitstream\nCodec ID                                 : XVID\nCodec ID/Hint                            : XviD\nDuration                                 : 1h 15mn\nBit rate                                 : 1 417 Kbps\nWidth                                    : 624 pixels\nHeight                                   : 262 pixels\nDisplay aspect ratio                     : 2.40:1\nFrame rate                               : 25.000 fps\nColor space                              : YUV\nChroma subsampling                       : 4:2:0\nBit depth                                : 8 bits\nScan type                                : Progressive\nCompression mode                         : Lossy\nBits/(Pixel*Frame)                       : 0.347\nStream size                              : 768 MiB (91%)\nWriting library                          : XviD 64\n\nAudio\nID                                       : 1\nFormat                                   : MPEG Audio\nFormat version                           : Version 1\nFormat profile                           : Layer 3\nMode                                     : Joint stereo\nMode extension                           : MS Stereo\nCodec ID                                 : 55\nCodec ID/Hint                            : MP3\nDuration                                 : 1h 15mn\nBit rate mode                            : Constant\nBit rate                                 : 128 Kbps\nChannel(s)                               : 2 channels\nSampling rate                            : 44.1 KHz\nCompression mode                         : Lossy\nDelay relative to video                  : 309ms\nStream size                              : 69.4 MiB (8%)\nAlignment                                : Split accross interleaves\nInterleave, duration                     : 40 ms (1.00 video frame)\nInterleave, preload duration             : 500 ms\n\n &lt;a href=&quot;\nhttp://www.imdb.com/title/tt1706593/&quot; rel=&quot;nofollow&quot; target=&quot;_NEW&quot;&gt;\nhttp://www.imdb.com/title/tt1706593/&lt;/a&gt;\n\n\nRatings: 7.5/10 from 17,022 users   Metascore: 69/100 \nReviews: 189 user | 182 critic | 31 from Metacritic.com\n\nThree high school friends gain superpowers after making an incredible discovery. Soon, though, they find their lives spinning out of control and their bond tested as they embrace their darker sides.\nDirector:\nJosh Trank\nWriters:\nMax Landis (screenplay), Max Landis (story), and 1 more credit Ã‚Â»\nStars:\nDane DeHaan, Alex Russell and Michael B. Jordan \n\n\nSource Used:\n\nVideo ...........NoZgt........thanks\n\nAudio........ Mistere.................thanks\n\nQuiet so had a go at chronicle again using the 2nd source that showed\n\nHQ Smoother ,then sharpened,changed the sauration and hue levels\n\nSample is included so check it out\n\n\nPoster:\n\n &lt;a href=&quot;\nhttp://i.imgur.com/63Qo9.jpg&quot; rel=&quot;nofollow&quot; target=&quot;_NEW&quot;&gt;\nhttp://i.imgur.com/63Qo9.jpg&lt;/a&gt;\n\n\nScreenshots:\n\n &lt;a href=&quot;\nhttp://i.imgur.com/kHeCM.jpg&quot; rel=&quot;nofollow&quot; target=&quot;_NEW&quot;&gt;\nhttp://i.imgur.com/kHeCM.jpg&lt;/a&gt;\n\n\nENJOY!","torrent":{"xt":"urn:btih:5848787bcd946f468b539ead8b030d7119893330","amp;dn":"Chronicle+2012+V2+TS+XViD+DTRG","amp;tr":["udp%3A%2F%2Ftracker.openbittorrent.com%3A80","udp%3A%2F%2Fopen.demonii.com%3A1337","udp%3A%2F%2Ftracker.coppersurfer.tk%3A6969","udp%3A%2F%2Fexodus.desync.com%3A6969"],"infoHash":"5848787bcd946f468b539ead8b030d7119893330","infoHashBuffer":{"type":"Buffer","data":[88,72,120,123,205,148,111,70,139,83,158,173,139,3,13,113,25,137,51,48]},"announce":[],"urlList":[]}}